<?xml version="1.0" encoding="UTF-8" standalone="no"?>
<!-- Created with Inkscape (http://www.inkscape.org/) -->

<svg
   xmlns:dc="http://purl.org/dc/elements/1.1/"
   xmlns:cc="http://creativecommons.org/ns#"
   xmlns:rdf="http://www.w3.org/1999/02/22-rdf-syntax-ns#"
   xmlns:svg="http://www.w3.org/2000/svg"
   xmlns="http://www.w3.org/2000/svg"
   xmlns:sodipodi="http://sodipodi.sourceforge.net/DTD/sodipodi-0.dtd"
   xmlns:inkscape="http://www.inkscape.org/namespaces/inkscape"
   sodipodi:docname="construct.svg"
   inkscape:version="0.91 r13725"
   version="1.1"
   id="svg2"
   viewBox="0 0 816.60635 663.1376"
   height="187.15222mm"
   width="230.46449mm">
  <defs
     id="defs4" />
  <sodipodi:namedview
     inkscape:window-maximized="1"
     inkscape:window-y="0"
     inkscape:window-x="0"
     inkscape:window-height="1027"
     inkscape:window-width="1920"
     showgrid="false"
     inkscape:current-layer="layer2"
     inkscape:document-units="px"
     inkscape:cy="441.29824"
     inkscape:cx="406.46329"
     inkscape:zoom="1.4"
     inkscape:pageshadow="2"
     inkscape:pageopacity="0.0"
     borderopacity="1.0"
     bordercolor="#666666"
     pagecolor="#ffffff"
     id="base"
     units="mm"
     width="209mm"
     fit-margin-top="0"
     fit-margin-left="20"
     fit-margin-right="20"
     fit-margin-bottom="0" />
  <metadata
     id="metadata7">
    <rdf:RDF>
      <cc:Work
         rdf:about="">
        <dc:format>image/svg+xml</dc:format>
        <dc:type
           rdf:resource="http://purl.org/dc/dcmitype/StillImage" />
        <dc:title></dc:title>
      </cc:Work>
    </rdf:RDF>
  </metadata>
  <g
     inkscape:groupmode="layer"
     id="layer2"
     inkscape:label="BG"
     style="display:inline"
     transform="translate(70.866125,-2.6134336e-5)">
    <circle
       style="opacity:1;fill:#ffffff;fill-opacity:1;stroke:none;stroke-width:40.72999954;stroke-miterlimit:4;stroke-dasharray:none;stroke-opacity:1"
       id="path4269"
       cx="342.14282"
       cy="337.42346"
       r="310" />
  </g>
  <g
     inkscape:label="Layer 1"
     inkscape:groupmode="layer"
     id="layer1"
     transform="translate(70.866125,-389.22463)"
     sodipodi:insensitive="true"
     style="display:inline">
    <g
       id="g7377"
       transform="matrix(0.88913229,0,0,0.88926437,5.0812522,385.85335)">
      <path
         id="path3338"
         d="m 372.85742,3.7910156 a 378.57144,372.85715 0 0 0 -72.19336,7.0761724 l 0,222.972652 L 145.94727,79.123047 A 378.57144,372.85715 0 0 0 69.935547,153.6582 l 148.099613,148.34766 -215.6738319,0 a 378.57144,372.85715 0 0 0 -8.0761719,74.64258 378.57144,372.85715 0 0 0 8.3652344,75.90625 l 224.0234394,0 -152.677736,152.67578 a 378.57144,372.85715 0 0 0 76.921876,72.99805 l 148.99219,-148.99219 0,212.98047 a 378.57144,372.85715 0 0 0 72.94726,7.28906 378.57144,372.85715 0 0 0 77.19727,-7.93164 l 0,-207.86133 144.62695,144.62695 a 378.57144,372.85715 0 0 0 76.96289,-73.58203 L 519.25,452.36328 l 223.73633,0 a 378.57144,372.85715 0 0 0 8.4414,-75.71484 378.57144,372.85715 0 0 0 -7.79687,-74.68946 l -216.53516,0 148.27539,-148.27539 A 378.57144,372.85715 0 0 0 600.32031,79.042969 l -150.29687,150.296871 0,-217.289059 A 378.57144,372.85715 0 0 0 372.85742,3.7910156 Z M 383.75781,254.34961 A 135.86552,135.86552 0 0 1 515.71289,364.29102 135.86552,135.86552 0 0 1 408.57031,523.51758 135.86552,135.86552 0 0 1 249.09375,416.74609 L 248.85156,415.5 a 135.86552,135.86552 0 0 1 107.88672,-158.72461 135.86552,135.86552 0 0 1 27.01953,-2.42578 z"
         style="fill:#918a6f"
         inkscape:connector-curvature="0" />
      <path
         id="rect3346"
         d="m 368.57227,109.50586 c -147.20571,0 -265.71485,118.50719 -265.71485,265.71289 0,147.2057 118.50914,265.71484 265.71485,265.71484 147.2057,0 265.71289,-118.50914 265.71289,-265.71484 0,-147.2057 -118.50719,-265.71289 -265.71289,-265.71289 z m 7.03125,192.14648 a 75.178574,75.178574 0 0 1 73.01562,60.83399 75.178574,75.178574 0 0 1 -59.28516,88.10547 75.178574,75.178574 0 0 1 -88.24218,-59.08008 l -0.13477,-0.68945 a 75.178574,75.178574 0 0 1 59.69727,-87.82813 75.178574,75.178574 0 0 1 14.94922,-1.3418 z"
         style="fill:#918a6f;fill-opacity:1"
         inkscape:connector-curvature="0" />
    </g>
    <ellipse
       style="opacity:1;fill:none;fill-rule:evenodd;stroke:#000000;stroke-width:40.0642662;stroke-linecap:butt;stroke-linejoin:miter;stroke-miterlimit:4;stroke-dasharray:none;stroke-opacity:1"
       id="path3394"
       cx="337.43701"
       cy="721.02856"
       rx="317.40488"
       ry="311.30148" />
  </g>
</svg>
